PathFileType	4	(X/Y/Z)	C:/Users/opensim2020/Desktop/walking_exp_matlab/subject06_walking12_straigt_02.trc																																																																																																																																														
DataRate	CameraRate	NumFrames	NumMarkers	Units	OrigDataRate	OrigDataStartFrame	OrigNumFrames																																																																																																																																										
100	100	6	48	mm	100	1466	215																																																																																																																																										
Frame#	Time	LFHD			RFHD			LBHD			RBHD			C7			T10			CLAV			STRN			RBAK			LSHO			LUPA			LELB			LFRM			LWRA			LWRB			LFIN			RSHO			RUPA			RELB			RFRM			RWRA			RWRB			RFIN			LASI			RASI			LPSI			RPSI			LTHI			LKNE			LTIB			LANK			LHEE			LTOE			RTHI			RKNE			RTIB			RANK			RHEE			RTOE			*39			*40			*41			*42			*43			*44			*45			*46			*47		
		X1	Y1	Z1	X2	Y2	Z2	X3	Y3	Z3	X4	Y4	Z4	X5	Y5	Z5	X6	Y6	Z6	X7	Y7	Z7	X8	Y8	Z8	X9	Y9	Z9	X10	Y10	Z10	X11	Y11	Z11	X12	Y12	Z12	X13	Y13	Z13	X14	Y14	Z14	X15	Y15	Z15	X16	Y16	Z16	X17	Y17	Z17	X18	Y18	Z18	X19	Y19	Z19	X20	Y20	Z20	X21	Y21	Z21	X22	Y22	Z22	X23	Y23	Z23	X24	Y24	Z24	X25	Y25	Z25	X26	Y26	Z26	X27	Y27	Z27	X28	Y28	Z28	X29	Y29	Z29	X30	Y30	Z30	X31	Y31	Z31	X32	Y32	Z32	X33	Y33	Z33	X34	Y34	Z34	X35	Y35	Z35	X36	Y36	Z36	X37	Y37	Z37	X38	Y38	Z38	X39	Y39	Z39	X40	Y40	Z40	X41	Y41	Z41	X42	Y42	Z42	X43	Y43	Z43	X44	Y44	Z44	X45	Y45	Z45	X46	Y46	Z46	X47	Y47	Z47	X48	Y48	Z48
																																																																																																																																																	
27	0.26	-1052.66296	1652.28577	-1474.7666	-1058.81958	1640.69727	-1343.25305	-1184.56873	1594.31787	-1481.64075	-1189.24353	1588.67273	-1353.05701	-1183.81592	1432.65002	-1421.28125	-1201.67468	1103.18347	-1408.35339	-1068.73999	1361.28699	-1419.92529	-1020.96643	1186.66199	-1420.60779	-1249.89282	1260.57617	-1337.91821	-1130.87744	1388.72144	-1582.23254	-1185.17017	1194.23157	-1643.40076	-1223.59912	1087.74463	-1644.02161	-1249.797	938.10992	-1655.31787	-1236.81189	813.11035	-1600.66577	-1290.99377	827.04004	-1645.89001	-1283.75696	735.78796	-1633.56482	-1119.66077	1393.78577	-1260.61389	-1120.64612	1194.98108	-1168.6178	-1078.63037	1081.6272	-1154.70239	-1003.99817	989.48328	-1143.40393	-878.75647	912.72321	-1187.42383	-920.68097	882.45758	-1144.89539	-846.88788	844.84192	-1144.30884	-1014.96112	952.23376	-1509.5083	-1033.90918	947.2876	-1290.95776	-1176.13013	972.89801	-1494.69092	-1181.14343	973.31757	-1326.55811	-1028.87769	642.34338	-1588.68848	-987.09131	487.28989	-1560.70398	-952.67041	234.2588	-1559.93774	-897.38422	69.89622	-1527.6936	-929.25977	48.39814	-1479.14282	-747.42462	64.25719	-1527.10413	-1135.99268	614.2121	-1253.98682	-1159.92957	489.03201	-1276.58655	-1335.6095	280.15869	-1288.72314	-1449.40186	133.34502	-1335.90186	-1495.52905	133.0658	-1380.98804	-1333.6925	36.57342	-1342.46057	-1156.60938	1688.12952	-1420.21582	NaN	NaN	NaN	NaN	NaN	NaN	NaN	NaN	NaN	NaN	NaN	NaN	NaN	NaN	NaN	NaN	NaN	NaN	NaN	NaN	NaN	NaN	NaN	NaN
28	0.27	-1042.02124	1653.79346	-1475.76257	-1048.66589	1641.86609	-1344.35938	-1173.87915	1595.84998	-1483.23059	-1178.95825	1589.91895	-1354.73315	-1173.42261	1433.27686	-1423.52161	-1188.03894	1103.46326	-1410.4552	-1057.82239	1362.86499	-1421.78296	-1008.383	1188.56213	-1422.48816	-1238.23792	1259.94958	-1341.02441	-1119.66235	1390.0636	-1584.30383	-1172.27844	1195.12341	-1645.90295	-1209.77051	1088.30505	-1646.61658	-1234.61646	938.46362	-1658.15405	-1220.75281	813.45844	-1603.63342	-1274.61194	826.66205	-1648.52905	-1267.12305	735.83643	-1636.56885	-1109.76086	1394.3385	-1262.54285	-1110.48474	1195.13513	-1170.78723	-1069.35583	1081.41602	-1156.81445	-996.09161	987.94916	-1144.98901	-871.84784	908.77747	-1187.88831	-914.63422	879.44257	-1145.677	-841.31274	840.1723	-1144.7334	-1001.20416	953.13794	-1510.19092	-1020.4884	948.37231	-1292.4054	-1161.88831	974.38953	-1496.35559	-1167.60144	974.06213	-1328.31689	-1018.3031	642.88135	-1589.97705	-981.01196	486.86844	-1562.68591	-946.53369	234.80946	-1561.59827	-892.87427	69.80703	-1529.0498	-926.35358	49.96274	-1480.67261	-743.29205	57.99371	-1525.49048	-1122.00098	614.45288	-1254.27002	-1145.08691	489.22903	-1276.46582	-1325.02222	284.31119	-1289.10498	-1442.20898	140.71088	-1336.10242	-1487.57422	142.60193	-1381.63049	-1332.81604	36.74341	-1342.93201	-1146.12598	1689.47192	-1421.46375	NaN	NaN	NaN	NaN	NaN	NaN	NaN	NaN	NaN	NaN	NaN	NaN	NaN	NaN	NaN	NaN	NaN	NaN	NaN	NaN	NaN	NaN	NaN	NaN
29	0.28	-1031.37695	1655.33643	-1476.70508	-1038.3811	1643.10022	-1345.4408	-1163.24634	1597.68481	-1484.89893	-1168.75366	1591.32959	-1356.39893	-1162.85168	1434.27747	-1425.76587	-1174.33191	1103.8783	-1412.59375	-1046.99609	1364.60779	-1423.60315	-995.64386	1190.73328	-1424.36951	-1226.46106	1259.48145	-1344.23108	-1108.43323	1391.56128	-1586.41113	-1159.0177	1196.20862	-1648.47339	-1195.40588	1088.87732	-1649.33264	-1218.88489	938.89606	-1661.16223	-1203.88562	813.935	-1606.82043	-1258.18298	827.15631	-1652.18469	-1249.62952	735.8847	-1639.76807	-1099.89441	1395.08667	-1264.34119	-1100.45166	1195.43958	-1173.13245	-1059.9425	1081.38916	-1158.96631	-988.27411	986.48242	-1146.68689	-865.40704	904.56622	-1188.29102	-909.06689	876.25385	-1146.41382	-836.90253	835.34302	-1144.81201	-986.81152	954.44495	-1511.4353	-1007.02582	949.77386	-1293.94324	-1147.83618	976.27808	-1497.8479	-1153.91113	975.00793	-1329.99963	-1008.19275	644.31006	-1591.34998	-974.63092	486.94028	-1564.97253	-940.65936	235.31313	-1564.14893	-889.87109	68.99802	-1530.06531	-924.18878	50.95541	-1482.07068	-740.5578	51.63214	-1524.44434	-1107.30359	614.90527	-1254.43005	-1129.35144	489.22083	-1275.91736	-1313.15527	288.56995	-1289.43689	-1434.12207	148.42873	-1336.74695	-1478.35693	152.84926	-1382.57239	-1332.05664	36.93171	-1343.29114	-1135.56396	1691.0824	-1422.74646	NaN	NaN	NaN	NaN	NaN	NaN	NaN	NaN	NaN	NaN	NaN	NaN	NaN	NaN	NaN	NaN	NaN	NaN	NaN	NaN	NaN	NaN	NaN	NaN
30	0.29	-1020.54175	1656.64929	-1477.65259	-1028.07288	1644.09302	-1346.53967	-1152.55371	1599.47302	-1486.57996	-1158.65662	1592.81873	-1358.17822	-1152.10059	1435.34521	-1427.86963	-1160.76697	1104.43689	-1414.80884	-1035.97766	1366.34387	-1425.42554	-982.83569	1193.03601	-1426.31116	-1214.49316	1259.17236	-1347.27063	-1097.06396	1393.13184	-1588.31812	-1145.37109	1197.36011	-1651.02161	-1180.60632	1089.7218	-1652.04895	-1202.54749	939.47577	-1664.31726	-1185.96021	814.737	-1610.42053	-1240.5531	827.14734	-1655.474	-1231.31299	736.13745	-1643.28528	-1090.09155	1395.96313	-1266.15955	-1090.71179	1195.9397	-1175.59998	-1050.44775	1081.67847	-1161.34009	-980.74066	985.12695	-1148.38025	-859.49628	900.19537	-1188.68567	-904.16718	873.04218	-1147.08191	-833.1308	830.44482	-1144.81873	-972.36835	955.95679	-1512.73706	-994.04663	951.22028	-1295.52649	-1134.03345	978.06055	-1499.02429	-1140.1167	976.03296	-1331.66711	-998.13062	645.86957	-1592.62061	-967.07074	487.48877	-1567.37061	-935.85205	235.03398	-1566.28699	-887.98669	68.63603	-1530.67395	-922.8775	51.62481	-1482.93799	-738.9574	48.14796	-1524.76501	-1092.09277	615.33447	-1254.51428	-1112.72314	489.37766	-1274.96594	-1301.03235	293.28836	-1288.87793	-1424.98889	156.55661	-1337.19531	-1467.85193	163.00818	-1383.57373	-1330.99316	37.46148	-1343.37524	-1124.8418	1692.65771	-1424.03711	NaN	NaN	NaN	NaN	NaN	NaN	NaN	NaN	NaN	NaN	NaN	NaN	NaN	NaN	NaN	NaN	NaN	NaN	NaN	NaN	NaN	NaN	NaN	NaN
31	0.3	-1009.69824	1657.83142	-1478.65137	-1017.83759	1644.93872	-1347.63208	-1141.86011	1601.00867	-1488.29553	-1148.48547	1594.03857	-1359.90002	-1141.31152	1436.1499	-1429.92834	-1147.39893	1105.14771	-1416.77698	-1024.91724	1367.93164	-1427.15601	-969.9408	1195.20764	-1428.15857	-1202.40601	1258.89807	-1350.21509	-1085.49988	1394.74084	-1590.18091	-1131.39197	1198.55688	-1653.53589	-1165.34814	1090.54077	-1654.8584	-1185.44714	939.96326	-1667.38733	-1167.62415	815.45239	-1614.43433	-1221.93555	826.95496	-1658.6991	-1212.06812	736.30182	-1646.9657	-1080.21045	1396.95154	-1268.02332	-1081.38635	1196.50623	-1178.35938	-1040.88281	1082.16821	-1163.87769	-973.44171	983.90253	-1150.13269	-853.99335	895.64453	-1188.98083	-899.77063	869.75958	-1147.77063	-830.01636	825.27295	-1144.68616	-958.43396	957.71039	-1514.0188	-978.83478	953.34558	-1297.44666	-1120.11011	979.74493	-1500.72815	-1126.47668	976.95917	-1333.24817	-987.72711	647.61426	-1594.40955	-958.98444	488.26389	-1569.79919	-931.5882	234.79683	-1568.09949	-886.67236	68.11859	-1530.19275	-921.81976	52.04872	-1482.56787	-738.17755	47.24414	-1526.34387	-1076.46606	615.65674	-1254.45874	-1095.56665	489.38419	-1273.59692	-1287.62195	297.78656	-1288.68909	-1414.9917	164.54434	-1337.14221	-1456.42334	173.06813	-1383.99255	-1329.06189	38.59868	-1343.1947	-1114.1405	1693.96191	-1425.39343	NaN	NaN	NaN	NaN	NaN	NaN	NaN	NaN	NaN	NaN	NaN	NaN	NaN	NaN	NaN	NaN	NaN	NaN	NaN	NaN	NaN	NaN	NaN	NaN
32	0.31	-999.0401	1659.09741	-1479.6908	-1007.73645	1645.92358	-1348.6792	-1131.15393	1602.36572	-1490.05237	-1138.34485	1595.06665	-1361.69275	-1130.61243	1436.66296	-1432.07642	-1134.16003	1105.87195	-1418.37744	-1013.646	1369.4198	-1428.83777	-957.11957	1197.16907	-1429.87439	-1190.3092	1258.62048	-1353.07605	-1073.89526	1396.32971	-1591.95398	-1117.15076	1199.68579	-1656.09009	-1149.78979	1091.33801	-1657.73486	-1167.92432	940.74927	-1671.05542	-1148.23499	816.11816	-1617.76001	-1202.83008	827.05518	-1662.53479	-1191.91931	736.38953	-1650.8479	-1070.40991	1397.97668	-1269.95691	-1071.9519	1197.25879	-1180.64807	-1031.44958	1082.65039	-1166.53491	-966.3266	982.69434	-1151.88354	-849.00214	890.93335	-1189.21545	-895.87189	866.46661	-1148.47656	-827.44775	820.00842	-1144.58569	-944.82825	959.58209	-1515.60376	-965.2973	954.89862	-1299.60376	-1106.62537	981.54718	-1502.23511	-1112.84607	977.78552	-1334.7793	-976.89319	649.672	-1595.69177	-950.72894	489.49774	-1572.07544	-926.77179	235.08501	-1570.11426	-885.91528	68.15692	-1530.2323	-921.26874	52.44441	-1482.69312	-737.50201	46.40359	-1526.76953	-1060.71423	615.74554	-1254.28992	-1078.08936	489.23508	-1271.9718	-1273.32996	302.26511	-1288.14111	-1404.24561	172.82944	-1336.71069	-1444.29553	183.72011	-1383.96521	-1326.39941	40.46331	-1342.76233	-1103.66028	1695.12109	-1426.77344	NaN	NaN	NaN	NaN	NaN	NaN	NaN	NaN	NaN	NaN	NaN	NaN	NaN	NaN	NaN	NaN	NaN	NaN	NaN	NaN	NaN	NaN	NaN	NaN
